<?xml version="1.0" standalone="no"?>
<!DOCTYPE svg PUBLIC "-//W3C//DTD SVG 20010904//EN"
 "http://www.w3.org/TR/2001/REC-SVG-20010904/DTD/svg10.dtd">
<svg version="1.0" xmlns="http://www.w3.org/2000/svg"
 width="200.000000pt" height="200.000000pt" viewBox="0 0 200.000000 200.000000"
 preserveAspectRatio="xMidYMid meet">
<metadata>
Created by potrace 1.16, written by Peter Selinger 2001-2019
</metadata>
<g transform="translate(0.000000,200.000000) scale(0.100000,-0.100000)"
fill="#000000" stroke="none">
<path d="M828 1539 c-199 -29 -376 -110 -492 -225 -108 -107 -151 -233 -127
-376 36 -220 208 -380 490 -456 88 -23 113 -25 296 -26 186 0 207 2 299 27
243 65 424 210 479 382 54 170 17 327 -107 451 -109 108 -273 186 -464 219
-90 16 -280 18 -374 4z m375 -44 c104 -18 210 -55 297 -103 l65 -36 -35 -15
c-24 -10 -69 -15 -145 -15 -103 -1 -115 2 -190 33 -110 46 -202 49 -290 7 -71
-34 -176 -65 -225 -65 -30 -1 -113 17 -207 45 -32 9 -21 19 55 58 75 38 208
81 292 95 88 14 290 12 383 -4z m-38 -171 c161 -60 251 -65 384 -21 l64 21 43
-47 c45 -50 99 -148 92 -168 -2 -6 -41 -22 -87 -35 -46 -14 -117 -38 -159 -54
l-75 -29 -156 131 c-86 72 -171 137 -190 145 -51 22 -91 9 -172 -52 -58 -44
-80 -55 -110 -55 -21 0 -40 4 -43 8 -9 15 137 151 179 166 64 23 150 19 230
-10z m-489 -58 l101 -1 -33 -39 c-19 -22 -34 -45 -34 -51 0 -21 38 -47 78 -52
44 -6 77 8 150 64 56 43 86 55 116 47 25 -6 93 -58 259 -199 106 -90 123 -115
95 -143 -22 -22 -44 -13 -114 48 -38 33 -72 60 -76 60 -21 0 -2 -31 54 -87 68
-69 70 -87 15 -107 -23 -9 -32 -4 -81 42 -59 56 -62 57 -71 42 -3 -5 15 -33
41 -61 39 -41 46 -54 37 -67 -18 -30 -47 -25 -95 18 -55 48 -75 37 -29 -16 33
-37 33 -54 1 -54 -35 0 -50 12 -50 41 0 45 -21 79 -62 100 -24 12 -38 26 -38
38 0 28 -47 61 -86 61 -19 0 -34 4 -34 9 0 14 -51 30 -95 31 -22 0 -59 0 -82
1 -24 0 -49 0 -55 -1 -7 -1 -41 10 -75 24 -35 15 -108 38 -163 53 -65 17 -100
31 -100 40 0 29 60 130 104 174 l46 47 87 -31 c75 -26 103 -30 189 -31z m-261
-262 c28 -9 71 -25 96 -35 39 -17 46 -25 47 -49 1 -42 17 -65 54 -81 18 -7 45
-25 59 -40 14 -16 39 -31 55 -35 16 -4 41 -16 55 -26 14 -10 36 -20 49 -21 13
-1 34 -12 46 -24 32 -32 70 -39 108 -20 21 10 38 12 47 6 22 -14 83 -11 105 6
10 8 32 15 47 15 18 0 40 11 59 30 16 17 38 30 47 30 24 0 68 35 76 60 4 11
15 20 26 20 11 0 34 14 51 30 24 25 29 37 25 59 -6 28 -4 30 64 55 84 31 220
68 227 61 9 -8 -18 -118 -40 -164 -36 -77 -139 -169 -248 -224 -135 -67 -254
-97 -421 -104 -299 -13 -552 71 -706 235 -45 47 -91 145 -99 209 l-6 52 63
-15 c35 -8 87 -21 114 -30z m265 -65 c11 -19 13 -20 30 -4 28 25 72 16 88 -18
10 -21 17 -26 25 -18 6 6 23 11 39 11 34 0 52 -30 43 -70 -6 -29 -6 -30 24
-24 39 8 71 -17 71 -56 0 -34 -17 -50 -55 -50 -35 0 -55 15 -55 42 0 16 -5 18
-35 12 -40 -7 -65 7 -65 38 0 20 -1 20 -47 1 -17 -7 -63 42 -63 68 0 18 -2 19
-15 9 -23 -19 -65 2 -65 33 0 47 59 66 80 26z"/>
</g>
</svg>
